M48
;DRILL file {Pcbnew (2013-03-15 BZR 4003)-stable} date 10-Jun-13 3:13:17 PM
;FORMAT={2:4/ absolute / inch / keep zeros}
FMAT,2
INCH,TZ
T1C0.040
%
G90
G05
M72
T1
X-008000Y000500
X-008000Y-000500
X-007170Y003577
X-007170Y-003577
X-006670Y004443
X-006670Y-004443
X-006197Y006327
X-004783Y004913
X-004453Y006670
X-004403Y-006700
X-003587Y007170
X-003537Y-007200
X-002429Y009223
X-002171Y008257
X-000510Y008000
X-000500Y-008000
X000000Y000000
X000490Y008000
X000500Y-008000
X000951Y009338
X001341Y005717
X001599Y006683
X003577Y007170
X003577Y-007170
X003849Y008562
X004443Y006670
X004443Y-006670
X006670Y-004443
X006700Y004393
X007170Y-003577
X007200Y003527
X008000Y000500
X008000Y-000500
T0
M30
